<?xml version="1.0" encoding="UTF-8"?>
<svg width="800" height="300" viewBox="0 0 800 300" xmlns="http://www.w3.org/2000/svg">
    <!-- Céu Noturno -->
    <rect x="0" y="0" width="800" height="150" fill="#1a237e"/>
    
    <!-- Estrelas -->
    <g fill="#FFFFFF">
        <rect x="50" y="20" width="2" height="2"/>
        <rect x="150" y="40" width="2" height="2"/>
        <rect x="250" y="30" width="2" height="2"/>
        <rect x="350" y="25" width="2" height="2"/>
        <rect x="450" y="35" width="2" height="2"/>
        <rect x="550" y="20" width="2" height="2"/>
        <rect x="650" y="40" width="2" height="2"/>
        <rect x="750" y="30" width="2" height="2"/>
        <!-- Segunda camada de estrelas -->
        <rect x="100" y="50" width="2" height="2"/>
        <rect x="200" y="15" width="2" height="2"/>
        <rect x="300" y="45" width="2" height="2"/>
        <rect x="400" y="10" width="2" height="2"/>
        <rect x="500" y="55" width="2" height="2"/>
        <rect x="600" y="25" width="2" height="2"/>
        <rect x="700" y="35" width="2" height="2"/>
    </g>
    
    <!-- Lua 8-bit -->
    <g>
        <rect x="60" y="30" width="40" height="40" fill="#ECEFF1"/>
        <rect x="70" y="35" width="10" height="10" fill="#1a237e"/> <!-- Cratera -->
        <rect x="85" y="45" width="8" height="8" fill="#1a237e"/> <!-- Cratera -->
    </g>
    
    <!-- Oceano Noturno -->
    <rect x="0" y="150" width="800" height="80" fill="#1a237e"/>
    
    <!-- Ondas noturnas -->
    <g fill="#3949ab">
        <rect x="20" y="160" width="20" height="20"/>
        <rect x="100" y="180" width="20" height="20"/>
        <rect x="180" y="160" width="20" height="20"/>
        <rect x="260" y="180" width="20" height="20"/>
        <rect x="340" y="160" width="20" height="20"/>
        <rect x="420" y="180" width="20" height="20"/>
        <rect x="500" y="160" width="20" height="20"/>
        <rect x="580" y="180" width="20" height="20"/>
        <rect x="660" y="160" width="20" height="20"/>
        <rect x="740" y="180" width="20" height="20"/>
    </g>
    
    <!-- Areia noturna -->
    <rect x="0" y="230" width="800" height="70" fill="#795548"/>
    
    <!-- Detalhes da areia -->
    <g fill="#5d4037">
        <rect x="40" y="240" width="10" height="10"/>
        <rect x="120" y="260" width="10" height="10"/>
        <rect x="200" y="250" width="10" height="10"/>
        <rect x="280" y="270" width="10" height="10"/>
        <rect x="360" y="240" width="10" height="10"/>
        <rect x="440" y="260" width="10" height="10"/>
        <rect x="520" y="250" width="10" height="10"/>
        <rect x="600" y="270" width="10" height="10"/>
        <rect x="680" y="240" width="10" height="10"/>
        <rect x="760" y="260" width="10" height="10"/>
    </g>
    
    <!-- Palmeiras noturnas -->
    <g>
        <!-- Tronco -->
        <rect x="100" y="180" width="20" height="50" fill="#3e2723"/>
        <!-- Folhas -->
        <g fill="#1b5e20">
            <rect x="80" y="160" width="60" height="20"/>
            <rect x="90" y="140" width="40" height="20"/>
            <rect x="100" y="120" width="20" height="20"/>
        </g>
        
        <!-- Segunda palmeira -->
        <rect x="600" y="180" width="20" height="50" fill="#3e2723"/>
        <g fill="#1b5e20">
            <rect x="580" y="160" width="60" height="20"/>
            <rect x="590" y="140" width="40" height="20"/>
            <rect x="600" y="120" width="20" height="20"/>
        </g>
    </g>
</svg>
