<?xml version="1.0" encoding="UTF-8"?>
<svg width="800" height="300" viewBox="0 0 800 300" xmlns="http://www.w3.org/2000/svg">
    <!-- Céu -->
    <rect x="0" y="0" width="800" height="150" fill="#87CEEB"/>
    
    <!-- Sol 8-bit -->
    <rect x="60" y="30" width="40" height="40" fill="#FFD700"/>
    
    <!-- Nuvens 8-bit -->
    <g fill="#FFFFFF">
        <rect x="150" y="40" width="20" height="20"/>
        <rect x="170" y="40" width="20" height="20"/>
        <rect x="190" y="40" width="20" height="20"/>
        <rect x="170" y="20" width="20" height="20"/>
        
        <rect x="350" y="60" width="20" height="20"/>
        <rect x="370" y="60" width="20" height="20"/>
        <rect x="390" y="60" width="20" height="20"/>
        <rect x="370" y="40" width="20" height="20"/>
    </g>
    
    <!-- Oceano -->
    <rect x="0" y="150" width="800" height="80" fill="#4169E1"/>
    
    <!-- Ondas 8-bit -->
    <g fill="#6495ED">
        <rect x="20" y="160" width="20" height="20"/>
        <rect x="100" y="180" width="20" height="20"/>
        <rect x="180" y="160" width="20" height="20"/>
        <rect x="260" y="180" width="20" height="20"/>
        <rect x="340" y="160" width="20" height="20"/>
        <rect x="420" y="180" width="20" height="20"/>
        <rect x="500" y="160" width="20" height="20"/>
        <rect x="580" y="180" width="20" height="20"/>
        <rect x="660" y="160" width="20" height="20"/>
        <rect x="740" y="180" width="20" height="20"/>
    </g>
    
    <!-- Areia -->
    <rect x="0" y="230" width="800" height="70" fill="#F4A460"/>
    
    <!-- Detalhes da areia -->
    <g fill="#DEB887">
        <rect x="40" y="240" width="10" height="10"/>
        <rect x="120" y="260" width="10" height="10"/>
        <rect x="200" y="250" width="10" height="10"/>
        <rect x="280" y="270" width="10" height="10"/>
        <rect x="360" y="240" width="10" height="10"/>
        <rect x="440" y="260" width="10" height="10"/>
        <rect x="520" y="250" width="10" height="10"/>
        <rect x="600" y="270" width="10" height="10"/>
        <rect x="680" y="240" width="10" height="10"/>
        <rect x="760" y="260" width="10" height="10"/>
    </g>
    
    <!-- Palmeiras 8-bit -->
    <g>
        <!-- Tronco -->
        <rect x="100" y="180" width="20" height="50" fill="#8B4513"/>
        <!-- Folhas -->
        <g fill="#228B22">
            <rect x="80" y="160" width="60" height="20"/>
            <rect x="90" y="140" width="40" height="20"/>
            <rect x="100" y="120" width="20" height="20"/>
        </g>
        
        <!-- Segunda palmeira -->
        <rect x="600" y="180" width="20" height="50" fill="#8B4513"/>
        <g fill="#228B22">
            <rect x="580" y="160" width="60" height="20"/>
            <rect x="590" y="140" width="40" height="20"/>
            <rect x="600" y="120" width="20" height="20"/>
        </g>
    </g>
</svg>
